PathFileType	4	(X/Y/Z)	C:\Users\°ÂÌØÂü\Desktop\20210112\bx_y_0_1801-Unnamed.trc
DataRate	CameraRate	NumFrames	NumMarkers	Units	OrigDataRate	OrigDataStartFrame	OrigNumFrames
50.00	50.00	       4	0	mm	50.00	1	       708
Frame#	Time	
		

1	0.000	-689.96777	-70.94872	1541.46094	-584.16144	226.54140	1067.22327	-584.68567	3.37454	800.47955	-640.63239	284.90985	875.10345	-583.84033	219.16096	811.80597	-691.15308	276.79477	745.27008	-725.51636	251.87347	644.59656	-692.02643	145.92705	571.84473	-730.93329	248.03542	577.36078	-670.06897	23.13913	519.10138	-771.80591	255.80586	503.21124	-676.80597	207.91740	532.50488	-716.87830	79.68362	216.34135	-663.39612	-66.40218	164.06239	-711.09863	152.27873	216.36069	-882.58575	296.13757	144.56622	-674.61060	56.87976	156.02254	-603.20795	20.62533	165.40012	-594.42139	222.69725	173.31291	-667.25879	299.14923	159.68251	-629.98749	307.69446	162.45454	-561.05115	261.92206	166.41820	-528.16980	304.08307	146.45369	-675.49878	114.80304	1850.47998	-715.85620	296.25467	1532.60693	-622.40698	-77.52867	159.38678	-517.72485	-72.97910	142.87009	-795.93134	172.04865	184.05551	-771.22028	222.02565	205.55237	-791.05347	101.23466	1057.18115	-766.43365	-4.29370	207.69836	-794.51740	56.35526	175.11353	-763.57349	-32.37869	488.32166	-559.20618	-39.85862	164.47270	-875.98248	-78.81853	141.25104	-591.31610	-0.66112	1047.18665	-702.76978	-23.90762	613.48529	-716.67261	-21.33804	567.19806	-674.58844	171.64180	156.97386	-693.51849	84.22193	573.29626	-692.83319	-46.01938	715.93805	-654.62628	-64.29416	856.10767	
2	0.020	-689.46185	-71.21104	1541.41504	-584.09760	226.76147	1067.15454	-584.55334	3.28830	800.65820	-640.63239	284.90985	875.10345	-583.92932	219.40314	811.88770	-691.30450	276.93027	745.26886	-725.29376	251.97461	644.24139	-691.62219	145.86023	572.20428	-731.16058	247.90924	577.43317	-670.35596	23.26975	519.03522	-771.89893	255.80933	503.05759	-676.80597	207.91740	532.50488	-716.71442	79.34898	215.68544	-663.30408	-66.29030	163.65567	-711.21942	152.17154	216.25725	-882.65778	296.13382	144.58998	-674.61060	56.87976	156.02254	-603.15552	20.42702	165.62119	-594.48499	222.66698	173.38101	-667.21033	299.37286	159.60059	-629.94788	307.32831	162.33081	-561.05115	261.92206	166.41820	-528.11450	304.37653	146.40186	-675.77185	114.56280	1850.51404	-715.63293	296.29221	1532.61597	-622.40698	-77.52867	159.38678	-517.72015	-72.88586	142.72130	-796.01031	172.18362	184.08807	-771.03522	222.22850	205.33919	-791.15570	101.08376	1057.38525	-766.45667	-4.35894	207.73384	-794.51740	56.35526	175.11353	-764.15955	-32.31952	488.06400	-559.09589	-39.81417	164.25481	-875.80096	-78.78884	141.48030	-591.26941	-0.66459	1047.04541	-702.70331	-23.98332	613.41010	-717.26117	-21.18685	566.46515	-674.79309	171.75000	157.05403	-693.58197	84.29877	573.19775	-692.74261	-46.02326	716.02411	-654.57916	-64.33306	856.00702	
3	0.040	-689.32404	-71.44289	1541.39258	-584.09760	226.76147	1067.15454	-585.26776	3.93762	800.38019	-640.63239	284.90985	875.10345	-583.87006	219.43462	811.82654	-691.30450	276.93027	745.26886	-725.36884	252.03380	644.43005	-691.64954	145.93307	572.01404	-730.97552	247.76532	577.05969	-670.24994	23.25339	519.34235	-771.89557	255.88802	503.01816	-676.86334	207.96585	532.39771	-716.71130	79.62776	216.08255	-663.33160	-66.44321	163.78531	-711.20422	152.13126	216.31964	-882.62158	296.14899	144.58987	-674.52039	56.96122	155.86221	-603.20941	20.50348	165.54921	-594.48499	222.66698	173.38101	-667.33423	299.49371	159.55124	-629.99835	307.71902	162.41187	-561.05115	261.92206	166.41820	-528.07770	304.24625	146.45256	-676.02399	113.91270	1850.55994	-715.17725	295.90381	1532.80103	-622.40698	-77.52867	159.38678	-517.82520	-72.80396	142.67525	-795.99481	172.05130	184.08157	-771.00031	222.16008	205.31720	-791.17371	100.96239	1057.55347	-766.48633	-4.30068	207.77856	-794.49939	56.18930	174.97931	-764.17566	-32.16241	487.88904	-559.27454	-39.83775	164.21449	-875.79523	-78.72449	141.54755	-591.21326	-0.70022	1047.09778	-702.83258	-24.13966	613.71106	-717.25958	-21.17774	566.51526	-674.79309	171.75000	157.05403	-693.58197	84.29877	573.19775	-692.82465	-45.89700	715.92371	-654.37921	-64.42432	856.07050	
4	0.060	-689.07849	-71.36291	1541.42773	-583.93524	226.51891	1067.16760	-585.08301	3.85814	800.36597	-640.63239	284.90985	875.10345	-584.17395	219.29004	811.71698	-691.30450	276.93027	745.26886	-725.38556	251.88808	644.56110	-691.86957	145.98936	572.01489	-731.07465	247.91997	577.27081	-670.26233	23.40636	519.10138	-771.81079	255.57803	502.90121	-676.87238	208.03320	532.50153	-716.87830	79.68362	216.34135	-663.33374	-66.41655	163.77805	-711.20422	152.13126	216.31964	-882.65057	295.82376	144.33597	-674.59259	56.98283	156.06439	-603.15057	20.62287	165.47792	-594.48499	222.66698	173.38101	-667.30487	299.30579	159.51372	-629.92303	307.53384	162.51292	-560.96423	261.93686	166.34175	-528.08600	304.15735	146.47820	-676.46600	113.50858	1850.65576	-714.84521	295.63968	1533.03809	-622.30554	-77.47947	159.28497	-517.77454	-72.77385	142.58614	-796.01031	172.18362	184.08807	-771.11865	222.07768	205.63773	-791.14661	100.96405	1057.62073	-766.45667	-4.35894	207.73384	-794.51740	56.35526	175.11353	-764.01086	-32.24809	487.97397	-559.29028	-39.78690	164.18227	-875.96472	-78.76889	141.32753	-591.19238	-0.65857	1047.02649	-702.73920	-24.04952	613.40472	-717.36328	-21.29147	566.63983	-674.85333	171.66905	156.89764	-693.51849	84.22193	573.29626	-692.82458	-45.91211	715.90564	-654.37921	-64.42432	856.07050	
